<svg xmlns="http://www.w3.org/2000/svg" xmlns:xlink="http://www.w3.org/1999/xlink" viewBox="0 0 1668.82 1200"><defs><style>.cls-1{fill:#fff;}.cls-2{fill:url(#linear-gradient);}</style><linearGradient id="linear-gradient" y1="600" x2="1200.03" y2="600" gradientUnits="userSpaceOnUse"><stop offset="0" stop-color="#fff"/><stop offset="0.5" stop-color="#856dff"/><stop offset="1" stop-color="#fff"/></linearGradient></defs><g id="Layer_2" data-name="Layer 2"><g id="Layer_1-2" data-name="Layer 1"><path class="cls-1" d="M1021.64,1200A966.14,966.14,0,0,0,858.82,926.52a939.61,939.61,0,0,1,90.79-87.8,1093.67,1093.67,0,0,1,103.48,142.72,18.39,18.39,0,0,0,31.64-.39,1091.06,1091.06,0,0,1,365.91-365.34,18.38,18.38,0,0,0,0-31.42,1092.75,1092.75,0,0,1-205-160.74A1090.55,1090.55,0,0,1,1084.6,218.72a18.39,18.39,0,0,0-31.51-.15A1089.42,1089.42,0,0,1,937.91,374.71,1089.21,1089.21,0,0,1,822.62,487.05,1091.25,1091.25,0,0,1,687,584.28a18.39,18.39,0,0,0,0,31.44,1089.73,1089.73,0,0,1,118.86,83.42,1124.83,1124.83,0,0,0-90.77,88.78A968,968,0,0,0,468.82,647.51v-95A968,968,0,0,0,728.75,401.16,980,980,0,0,0,848.26,285.79,967.15,967.15,0,0,0,1021.64,0H1116a971.37,971.37,0,0,0,552.85,552.52v95A971.2,971.2,0,0,0,1116,1200Z"/><path class="cls-2" d="M552.83,1200A971.34,971.34,0,0,0,0,647.51v-95A971.49,971.49,0,0,0,552.85,0h94.33A966.56,966.56,0,0,0,810,273.5a943.41,943.41,0,0,1-90.77,87.8A1090.31,1090.31,0,0,1,615.76,218.64a18.4,18.4,0,0,0-31.47-.07,1090.18,1090.18,0,0,1-161.11,205,1091.74,1091.74,0,0,1-205,160.74,18.4,18.4,0,0,0,0,31.44,1091.61,1091.61,0,0,1,205,160.75,1091.25,1091.25,0,0,1,161.11,205,18.38,18.38,0,0,0,31.6-.31,1092.43,1092.43,0,0,1,366-365.41,18.38,18.38,0,0,0,0-31.42A1093.92,1093.92,0,0,1,863,500.85a1128,1128,0,0,0,90.74-88.77A967.68,967.68,0,0,0,1200,552.52v95A974.19,974.19,0,0,0,647.18,1200Z"/></g></g></svg>