<svg xmlns="http://www.w3.org/2000/svg" xmlns:xlink="http://www.w3.org/1999/xlink" viewBox="0 0 1643.22 326.64"><defs><style>.cls-1{fill:#fff;}.cls-2{fill:url(#linear-gradient);}</style><linearGradient id="linear-gradient" y1="162.25" x2="324.5" y2="162.25" gradientUnits="userSpaceOnUse"><stop offset="0" stop-color="#fff"/><stop offset="0.5" stop-color="#856dff"/><stop offset="1" stop-color="#fff"/></linearGradient></defs><g id="Layer_2" data-name="Layer 2"><g id="Layer_1-2" data-name="Layer 1"><path class="cls-1" d="M629.25,58.59a69.9,69.9,0,0,1,36,26.79,94.07,94.07,0,0,1,15,34.1,163.41,163.41,0,0,1,4,35q0,42.12-16.92,71.34-22.95,39.41-70.83,39.4h-91V54h91Q616.19,54.3,629.25,58.59Zm-80.9,32.1V228.51H589.1q31.29,0,43.62-30.81,6.75-16.89,6.74-40.25,0-32.23-10.11-49.5T589.1,90.69Z"/><path class="cls-1" d="M807.13,112.19a63.5,63.5,0,0,1,27,23.1,76.6,76.6,0,0,1,12.44,32.28q1.65,10.77,1.35,31H734.17q.95,23.5,16.33,32.95,9.35,5.88,22.51,5.88,13.95,0,22.67-7.17a34.24,34.24,0,0,0,8.4-10.74h41.69q-1.65,13.89-15.14,28.22-21,22.79-58.75,22.78-31.17,0-55-19.21t-23.83-62.52q0-40.58,21.51-62.23t55.84-21.65Q790.79,104.87,807.13,112.19Zm-61.08,35.27q-8.65,8.92-10.88,24.17h70.34Q804.4,155.37,794.63,147t-24.21-8.41Q754.7,138.54,746.05,147.46Z"/><path class="cls-1" d="M972.31,112.19a63.55,63.55,0,0,1,27,23.1,76.73,76.73,0,0,1,12.44,32.28q1.65,10.77,1.35,31H899.34q1,23.5,16.33,32.95,9.36,5.88,22.52,5.88,13.95,0,22.67-7.17a34.24,34.24,0,0,0,8.4-10.74H1011q-1.65,13.89-15.14,28.22-21,22.79-58.75,22.78-31.17,0-55-19.21t-23.83-62.52q0-40.58,21.51-62.23t55.84-21.65Q956,104.87,972.31,112.19Zm-62.09,35.27q-8.65,8.92-10.87,24.17h70.34q-1.11-16.26-10.88-24.68t-24.21-8.41Q918.88,138.54,910.22,147.46Z"/><path class="cls-1" d="M1156.18,125.79q19.1,20.19,19.1,59.31,0,41.25-18.67,62.89t-48.09,21.63q-18.75,0-31.15-9.31-6.76-5.16-13.26-15v81.37h-40.4V109h39.11v23.07A65.74,65.74,0,0,1,1077,116q13.69-10.46,32.59-10.45Q1137.07,105.59,1156.18,125.79Zm-31.34,29.36q-8.33-13.89-27-13.89-22.44,0-30.83,21.06-4.35,11.18-4.34,28.36,0,27.23,14.6,38.25a33.52,33.52,0,0,0,20.56,6.45q17.22,0,26.27-13.18t9.05-35.1Q1133.16,169.06,1124.84,155.15Z"/><path class="cls-1" d="M1273.22,107.81q.78.07,3.51.21v41.83q-3.87-.42-6.88-.57c-2-.09-3.63-.14-4.87-.14q-24.64,0-33.09,16-4.73,9-4.73,27.8v74.64H1186V111.46h39v27.22q9.46-15.61,16.48-21.35,11.46-9.58,29.8-9.6C1272.05,107.73,1272.69,107.76,1273.22,107.81Z"/><path class="cls-1" d="M1396.54,112.19a63.52,63.52,0,0,1,27,23.1A76.86,76.86,0,0,1,1436,167.57q1.65,10.77,1.35,31H1323.58q1,23.5,16.33,32.95,9.36,5.88,22.51,5.88,14,0,22.68-7.17a34.24,34.24,0,0,0,8.4-10.74h41.68q-1.64,13.89-15.13,28.22-21,22.79-58.75,22.78-31.17,0-55-19.21t-23.83-62.52q0-40.58,21.51-62.23t55.84-21.65Q1380.21,104.87,1396.54,112.19Zm-61.08,35.27q-8.65,8.92-10.87,24.17h70.34q-1.12-16.26-10.88-24.68t-24.21-8.41Q1344.11,138.54,1335.46,147.46Z"/><path class="cls-1" d="M1519.81,170.2q11.4-1.44,16.31-3.58,8.81-3.74,8.8-11.61,0-9.6-6.75-13.25t-19.82-3.65q-14.67,0-20.77,7.16-4.35,5.29-5.81,14.33h-39.39q1.29-20.49,11.51-33.67,16.26-20.62,55.82-20.63,25.76,0,45.76,10.17t20,38.39V225.5q0,7.44.28,18.05.43,8,2.44,10.89a14.6,14.6,0,0,0,6,4.72v6H1549.8a44.35,44.35,0,0,1-2.58-8.88q-.72-4.16-1.15-9.46a84.17,84.17,0,0,1-19.6,15.62,59.21,59.21,0,0,1-30,7.59q-21.33,0-35.23-12.1t-13.91-34.32q0-28.78,22.37-41.69,12.27-7,36.08-10Zm25,19.05a44.92,44.92,0,0,1-7.92,3.94,67.09,67.09,0,0,1-11,2.79l-9.29,1.72q-13.08,2.3-18.77,5.59-9.64,5.6-9.65,17.34,0,10.45,5.89,15.11a22.44,22.44,0,0,0,14.33,4.66,42.68,42.68,0,0,0,24.66-7.74q11.28-7.74,11.71-28.22Z"/><path class="cls-1" d="M1643.22,265.18h-40.83V54h40.83Z"/><path class="cls-1" d="M276.26,324.49a261.32,261.32,0,0,0-44-74,252.41,252.41,0,0,1,24.55-23.74,296.14,296.14,0,0,1,28,38.59,5,5,0,0,0,4.24,2.39,4.72,4.72,0,0,0,1.34-.19,4.92,4.92,0,0,0,3-2.31,295.12,295.12,0,0,1,98.95-98.79,5,5,0,0,0,0-8.49,295.72,295.72,0,0,1-55.43-43.47,295,295,0,0,1-43.55-55.38,5,5,0,0,0-8.53,0,293.89,293.89,0,0,1-31.14,42.22,293.3,293.3,0,0,1-31.18,30.38A294.88,294.88,0,0,1,185.77,158a5,5,0,0,0,0,8.5,293.91,293.91,0,0,1,32.14,22.56,303.8,303.8,0,0,0-24.55,24,261.9,261.9,0,0,0-66.59-38V149.41a262,262,0,0,0,70.29-40.93,264.8,264.8,0,0,0,32.32-31.2A261.45,261.45,0,0,0,276.26,0h25.51A262.69,262.69,0,0,0,451.26,149.41v25.68a262.62,262.62,0,0,0-149.48,149.4Z"/><path class="cls-2" d="M149.49,324.49A262.67,262.67,0,0,0,0,175.09V149.41A262.76,262.76,0,0,0,149.5,0H175a261.51,261.51,0,0,0,44,74A256,256,0,0,1,194.49,97.7a294.37,294.37,0,0,1-28-38.58,5,5,0,0,0-8.51,0,295,295,0,0,1-43.57,55.43A295.72,295.72,0,0,1,59,158a5,5,0,0,0,0,8.5A294.9,294.9,0,0,1,114.43,210,294.62,294.62,0,0,1,158,265.39a5,5,0,0,0,4.25,2.39,4.82,4.82,0,0,0,1.34-.19,4.94,4.94,0,0,0,2.95-2.29,295.5,295.5,0,0,1,99-98.81,5,5,0,0,0,0-8.49,296.41,296.41,0,0,1-32.13-22.56,305.43,305.43,0,0,0,24.53-24,261.82,261.82,0,0,0,66.6,38v25.68A263.5,263.5,0,0,0,175,324.49Z"/></g></g></svg>